<mxfile host="Electron" agent="Mozilla/5.0 (Windows NT 10.0; Win64; x64) AppleWebKit/537.36 (KHTML, like Gecko) draw.io/24.7.17 Chrome/128.0.6613.36 Electron/32.0.1 Safari/537.36" version="24.7.17">
  <diagram name="Page-1" id="2YBvvXClWsGukQMizWep">
    <mxGraphModel dx="2300" dy="911" grid="1" gridSize="10" guides="1" tooltips="1" connect="1" arrows="1" fold="1" page="1" pageScale="1" pageWidth="1100" pageHeight="1200" math="0" shadow="0">
      <root>
        <mxCell id="0" />
        <mxCell id="1" parent="0" />
        <mxCell id="-tokIjTfclb8eiRB36Tb-1" value="" style="endArrow=none;dashed=1;html=1;rounded=0;" parent="1" edge="1">
          <mxGeometry width="50" height="50" relative="1" as="geometry">
            <mxPoint x="120" y="1040" as="sourcePoint" />
            <mxPoint x="120" y="200" as="targetPoint" />
          </mxGeometry>
        </mxCell>
        <mxCell id="-tokIjTfclb8eiRB36Tb-8" value=":ListSpendingsCommand" style="shape=umlLifeline;perimeter=lifelinePerimeter;whiteSpace=wrap;html=1;container=1;dropTarget=0;collapsible=0;recursiveResize=0;outlineConnect=0;portConstraint=eastwest;newEdgeStyle={&quot;curved&quot;:0,&quot;rounded&quot;:0};rounded=1;" parent="1" vertex="1">
          <mxGeometry x="200" y="160" width="160" height="880" as="geometry" />
        </mxCell>
        <mxCell id="-tokIjTfclb8eiRB36Tb-9" value="" style="html=1;points=[[0,0,0,0,5],[0,1,0,0,-5],[1,0,0,0,5],[1,1,0,0,-5]];perimeter=orthogonalPerimeter;outlineConnect=0;targetShapes=umlLifeline;portConstraint=eastwest;newEdgeStyle={&quot;curved&quot;:0,&quot;rounded&quot;:0};" parent="-tokIjTfclb8eiRB36Tb-8" vertex="1">
          <mxGeometry x="75" y="60" width="10" height="780" as="geometry" />
        </mxCell>
        <mxCell id="-tokIjTfclb8eiRB36Tb-13" value="" style="html=1;verticalAlign=bottom;labelBackgroundColor=none;endArrow=block;endFill=1;rounded=0;" parent="1" target="-tokIjTfclb8eiRB36Tb-9" edge="1">
          <mxGeometry width="160" relative="1" as="geometry">
            <mxPoint x="120" y="220" as="sourcePoint" />
            <mxPoint x="260" y="220" as="targetPoint" />
          </mxGeometry>
        </mxCell>
        <mxCell id="-tokIjTfclb8eiRB36Tb-14" value="execute(...)" style="edgeLabel;html=1;align=center;verticalAlign=middle;resizable=0;points=[];" parent="-tokIjTfclb8eiRB36Tb-13" vertex="1" connectable="0">
          <mxGeometry x="-0.3821" relative="1" as="geometry">
            <mxPoint x="-8" y="-10" as="offset" />
          </mxGeometry>
        </mxCell>
        <mxCell id="-tokIjTfclb8eiRB36Tb-16" value="" style="html=1;points=[[0,0,0,0,5],[0,1,0,0,-5],[1,0,0,0,5],[1,1,0,0,-5]];perimeter=orthogonalPerimeter;outlineConnect=0;targetShapes=umlLifeline;portConstraint=eastwest;newEdgeStyle={&quot;curved&quot;:0,&quot;rounded&quot;:0};" parent="1" vertex="1">
          <mxGeometry x="280" y="282" width="10" height="678" as="geometry" />
        </mxCell>
        <mxCell id="-tokIjTfclb8eiRB36Tb-17" value="handleCommand(...)" style="html=1;align=left;spacingLeft=2;endArrow=block;rounded=0;edgeStyle=orthogonalEdgeStyle;curved=0;rounded=0;" parent="1" source="-tokIjTfclb8eiRB36Tb-9" edge="1">
          <mxGeometry x="0.129" relative="1" as="geometry">
            <mxPoint x="285" y="252" as="sourcePoint" />
            <Array as="points">
              <mxPoint x="310" y="260" />
              <mxPoint x="310" y="282" />
            </Array>
            <mxPoint x="290" y="282" as="targetPoint" />
            <mxPoint as="offset" />
          </mxGeometry>
        </mxCell>
        <mxCell id="-tokIjTfclb8eiRB36Tb-19" value="" style="html=1;align=left;spacingLeft=2;endArrow=block;rounded=0;edgeStyle=orthogonalEdgeStyle;curved=0;rounded=0;dashed=1;" parent="1" edge="1">
          <mxGeometry x="0.129" relative="1" as="geometry">
            <mxPoint x="291" y="960" as="sourcePoint" />
            <Array as="points">
              <mxPoint x="311" y="960" />
              <mxPoint x="311" y="978" />
            </Array>
            <mxPoint x="286" y="978" as="targetPoint" />
            <mxPoint as="offset" />
          </mxGeometry>
        </mxCell>
        <mxCell id="6MTPRzdVfldAcxiSzNyp-2" value="return" style="edgeLabel;html=1;align=center;verticalAlign=middle;resizable=0;points=[];fontSize=12;" parent="-tokIjTfclb8eiRB36Tb-19" vertex="1" connectable="0">
          <mxGeometry x="0.0476" y="-4" relative="1" as="geometry">
            <mxPoint x="23" y="-3" as="offset" />
          </mxGeometry>
        </mxCell>
        <mxCell id="-tokIjTfclb8eiRB36Tb-20" value="&amp;lt;&amp;lt;class&amp;gt;&amp;gt;&lt;div&gt;:Ui&lt;/div&gt;" style="shape=umlLifeline;perimeter=lifelinePerimeter;whiteSpace=wrap;html=1;container=1;dropTarget=0;collapsible=0;recursiveResize=0;outlineConnect=0;portConstraint=eastwest;newEdgeStyle={&quot;curved&quot;:0,&quot;rounded&quot;:0};rounded=1;" parent="1" vertex="1">
          <mxGeometry x="517" y="160" width="100" height="820" as="geometry" />
        </mxCell>
        <mxCell id="-tokIjTfclb8eiRB36Tb-22" value="" style="html=1;points=[[0,0,0,0,5],[0,1,0,0,-5],[1,0,0,0,5],[1,1,0,0,-5]];perimeter=orthogonalPerimeter;outlineConnect=0;targetShapes=umlLifeline;portConstraint=eastwest;newEdgeStyle={&quot;curved&quot;:0,&quot;rounded&quot;:0};" parent="-tokIjTfclb8eiRB36Tb-20" vertex="1">
          <mxGeometry x="45" y="150" width="10" height="450" as="geometry" />
        </mxCell>
        <mxCell id="-tokIjTfclb8eiRB36Tb-21" value="" style="html=1;verticalAlign=bottom;labelBackgroundColor=none;endArrow=block;endFill=1;rounded=0;" parent="1" target="-tokIjTfclb8eiRB36Tb-22" edge="1">
          <mxGeometry width="160" relative="1" as="geometry">
            <mxPoint x="290" y="310" as="sourcePoint" />
            <mxPoint x="450" y="310" as="targetPoint" />
          </mxGeometry>
        </mxCell>
        <mxCell id="-tokIjTfclb8eiRB36Tb-25" value="printListOfTimeRange(spendings:SpendingList)" style="edgeLabel;html=1;align=center;verticalAlign=middle;resizable=0;points=[];" parent="-tokIjTfclb8eiRB36Tb-21" vertex="1" connectable="0">
          <mxGeometry x="0.3778" relative="1" as="geometry">
            <mxPoint x="-47" y="-10" as="offset" />
          </mxGeometry>
        </mxCell>
        <mxCell id="-tokIjTfclb8eiRB36Tb-26" value="alt" style="shape=umlFrame;whiteSpace=wrap;html=1;pointerEvents=0;width=40;height=30;" parent="1" vertex="1">
          <mxGeometry x="517" y="320" width="383" height="430" as="geometry" />
        </mxCell>
        <mxCell id="-tokIjTfclb8eiRB36Tb-27" value="[user chooses to list spendings for this week]" style="text;html=1;align=center;verticalAlign=middle;resizable=0;points=[];autosize=1;strokeColor=none;fillColor=none;" parent="1" vertex="1">
          <mxGeometry x="566" y="320" width="260" height="30" as="geometry" />
        </mxCell>
        <mxCell id="-tokIjTfclb8eiRB36Tb-28" value="" style="html=1;points=[[0,0,0,0,5],[0,1,0,0,-5],[1,0,0,0,5],[1,1,0,0,-5]];perimeter=orthogonalPerimeter;outlineConnect=0;targetShapes=umlLifeline;portConstraint=eastwest;newEdgeStyle={&quot;curved&quot;:0,&quot;rounded&quot;:0};" parent="1" vertex="1">
          <mxGeometry x="567" y="368" width="10" height="62" as="geometry" />
        </mxCell>
        <mxCell id="-tokIjTfclb8eiRB36Tb-29" value="printWeekly()" style="html=1;align=left;spacingLeft=2;endArrow=block;rounded=0;edgeStyle=orthogonalEdgeStyle;curved=0;rounded=0;" parent="1" edge="1">
          <mxGeometry x="-0.0123" relative="1" as="geometry">
            <mxPoint x="572" y="338" as="sourcePoint" />
            <Array as="points">
              <mxPoint x="572" y="350" />
              <mxPoint x="600" y="350" />
              <mxPoint x="600" y="368" />
            </Array>
            <mxPoint x="577" y="368" as="targetPoint" />
            <mxPoint as="offset" />
          </mxGeometry>
        </mxCell>
        <mxCell id="-tokIjTfclb8eiRB36Tb-30" value="" style="html=1;align=left;spacingLeft=2;endArrow=block;rounded=0;edgeStyle=orthogonalEdgeStyle;curved=0;rounded=0;dashed=1;" parent="1" source="-tokIjTfclb8eiRB36Tb-28" target="-tokIjTfclb8eiRB36Tb-22" edge="1">
          <mxGeometry x="-0.0291" relative="1" as="geometry">
            <mxPoint x="587" y="430" as="sourcePoint" />
            <Array as="points">
              <mxPoint x="600" y="430" />
              <mxPoint x="600" y="448" />
            </Array>
            <mxPoint x="592" y="448" as="targetPoint" />
            <mxPoint as="offset" />
          </mxGeometry>
        </mxCell>
        <mxCell id="6MTPRzdVfldAcxiSzNyp-4" value="return" style="edgeLabel;html=1;align=center;verticalAlign=middle;resizable=0;points=[];fontSize=12;" parent="-tokIjTfclb8eiRB36Tb-30" vertex="1" connectable="0">
          <mxGeometry x="-0.2527" y="-1" relative="1" as="geometry">
            <mxPoint x="18" y="-3" as="offset" />
          </mxGeometry>
        </mxCell>
        <mxCell id="-tokIjTfclb8eiRB36Tb-31" value="ref" style="shape=umlFrame;whiteSpace=wrap;html=1;pointerEvents=0;width=33;height=22;swimlaneFillColor=default;" parent="1" vertex="1">
          <mxGeometry x="522" y="379" width="138" height="40" as="geometry" />
        </mxCell>
        <mxCell id="-tokIjTfclb8eiRB36Tb-32" value="printWeekly" style="text;html=1;align=center;verticalAlign=middle;resizable=0;points=[];autosize=1;strokeColor=none;fillColor=none;" parent="1" vertex="1">
          <mxGeometry x="576" y="383" width="90" height="30" as="geometry" />
        </mxCell>
        <mxCell id="-tokIjTfclb8eiRB36Tb-33" value="" style="line;strokeWidth=1;fillColor=none;align=left;verticalAlign=middle;spacingTop=-1;spacingLeft=3;spacingRight=3;rotatable=0;labelPosition=right;points=[];portConstraint=eastwest;strokeColor=inherit;dashed=1;" parent="1" vertex="1">
          <mxGeometry x="517" y="453" width="383" height="8" as="geometry" />
        </mxCell>
        <mxCell id="-tokIjTfclb8eiRB36Tb-34" value="[user chooses to list spendings for last week and this week]" style="text;html=1;align=center;verticalAlign=middle;resizable=0;points=[];autosize=1;strokeColor=none;fillColor=none;" parent="1" vertex="1">
          <mxGeometry x="568" y="453" width="340" height="30" as="geometry" />
        </mxCell>
        <mxCell id="-tokIjTfclb8eiRB36Tb-35" value="" style="html=1;points=[[0,0,0,0,5],[0,1,0,0,-5],[1,0,0,0,5],[1,1,0,0,-5]];perimeter=orthogonalPerimeter;outlineConnect=0;targetShapes=umlLifeline;portConstraint=eastwest;newEdgeStyle={&quot;curved&quot;:0,&quot;rounded&quot;:0};" parent="1" vertex="1">
          <mxGeometry x="567" y="500" width="10" height="30" as="geometry" />
        </mxCell>
        <mxCell id="-tokIjTfclb8eiRB36Tb-36" value="printBiweekly()" style="html=1;align=left;spacingLeft=2;endArrow=block;rounded=0;edgeStyle=orthogonalEdgeStyle;curved=0;rounded=0;exitX=0.014;exitY=0.974;exitDx=0;exitDy=0;exitPerimeter=0;" parent="1" source="-tokIjTfclb8eiRB36Tb-34" edge="1">
          <mxGeometry x="-0.0123" relative="1" as="geometry">
            <mxPoint x="572" y="470" as="sourcePoint" />
            <Array as="points">
              <mxPoint x="600" y="482" />
              <mxPoint x="600" y="500" />
            </Array>
            <mxPoint x="577" y="500" as="targetPoint" />
            <mxPoint as="offset" />
          </mxGeometry>
        </mxCell>
        <mxCell id="-tokIjTfclb8eiRB36Tb-37" value="" style="html=1;align=left;spacingLeft=2;endArrow=block;rounded=0;edgeStyle=orthogonalEdgeStyle;curved=0;rounded=0;dashed=1;" parent="1" source="-tokIjTfclb8eiRB36Tb-35" target="-tokIjTfclb8eiRB36Tb-22" edge="1">
          <mxGeometry x="-0.0291" relative="1" as="geometry">
            <mxPoint x="587" y="562" as="sourcePoint" />
            <Array as="points">
              <mxPoint x="600" y="530" />
              <mxPoint x="600" y="550" />
            </Array>
            <mxPoint x="572" y="580" as="targetPoint" />
            <mxPoint as="offset" />
          </mxGeometry>
        </mxCell>
        <mxCell id="6MTPRzdVfldAcxiSzNyp-5" value="return" style="edgeLabel;html=1;align=center;verticalAlign=middle;resizable=0;points=[];fontSize=12;" parent="-tokIjTfclb8eiRB36Tb-37" vertex="1" connectable="0">
          <mxGeometry x="-0.0806" y="1" relative="1" as="geometry">
            <mxPoint x="16" as="offset" />
          </mxGeometry>
        </mxCell>
        <mxCell id="-tokIjTfclb8eiRB36Tb-38" value="" style="line;strokeWidth=1;fillColor=none;align=left;verticalAlign=middle;spacingTop=-1;spacingLeft=3;spacingRight=3;rotatable=0;labelPosition=right;points=[];portConstraint=eastwest;strokeColor=inherit;dashed=1;" parent="1" vertex="1">
          <mxGeometry x="517" y="560" width="383" height="8" as="geometry" />
        </mxCell>
        <mxCell id="-tokIjTfclb8eiRB36Tb-39" value="[user chooses to list spendings for this month]" style="text;html=1;align=center;verticalAlign=middle;resizable=0;points=[];autosize=1;strokeColor=none;fillColor=none;" parent="1" vertex="1">
          <mxGeometry x="567" y="561" width="270" height="30" as="geometry" />
        </mxCell>
        <mxCell id="-tokIjTfclb8eiRB36Tb-40" value="printMonthly()" style="html=1;align=left;spacingLeft=2;endArrow=block;rounded=0;edgeStyle=orthogonalEdgeStyle;curved=0;rounded=0;exitX=0.014;exitY=0.974;exitDx=0;exitDy=0;exitPerimeter=0;" parent="1" edge="1">
          <mxGeometry x="-0.0123" relative="1" as="geometry">
            <mxPoint x="572" y="589" as="sourcePoint" />
            <Array as="points">
              <mxPoint x="600" y="589" />
              <mxPoint x="600" y="607" />
            </Array>
            <mxPoint x="577" y="607" as="targetPoint" />
            <mxPoint as="offset" />
          </mxGeometry>
        </mxCell>
        <mxCell id="-tokIjTfclb8eiRB36Tb-41" value="" style="html=1;points=[[0,0,0,0,5],[0,1,0,0,-5],[1,0,0,0,5],[1,1,0,0,-5]];perimeter=orthogonalPerimeter;outlineConnect=0;targetShapes=umlLifeline;portConstraint=eastwest;newEdgeStyle={&quot;curved&quot;:0,&quot;rounded&quot;:0};" parent="1" vertex="1">
          <mxGeometry x="567" y="607" width="10" height="30" as="geometry" />
        </mxCell>
        <mxCell id="-tokIjTfclb8eiRB36Tb-42" value="" style="html=1;align=left;spacingLeft=2;endArrow=block;rounded=0;edgeStyle=orthogonalEdgeStyle;curved=0;rounded=0;dashed=1;" parent="1" source="-tokIjTfclb8eiRB36Tb-41" edge="1">
          <mxGeometry x="-0.0291" relative="1" as="geometry">
            <mxPoint x="587" y="669" as="sourcePoint" />
            <Array as="points">
              <mxPoint x="600" y="637" />
              <mxPoint x="600" y="657" />
            </Array>
            <mxPoint x="572" y="657" as="targetPoint" />
            <mxPoint as="offset" />
          </mxGeometry>
        </mxCell>
        <mxCell id="6MTPRzdVfldAcxiSzNyp-6" value="return" style="edgeLabel;html=1;align=center;verticalAlign=middle;resizable=0;points=[];fontSize=12;" parent="-tokIjTfclb8eiRB36Tb-42" vertex="1" connectable="0">
          <mxGeometry x="0.0771" relative="1" as="geometry">
            <mxPoint x="17" y="-2" as="offset" />
          </mxGeometry>
        </mxCell>
        <mxCell id="-tokIjTfclb8eiRB36Tb-43" value="" style="line;strokeWidth=1;fillColor=none;align=left;verticalAlign=middle;spacingTop=-1;spacingLeft=3;spacingRight=3;rotatable=0;labelPosition=right;points=[];portConstraint=eastwest;strokeColor=inherit;dashed=1;" parent="1" vertex="1">
          <mxGeometry x="517" y="664" width="383" height="8" as="geometry" />
        </mxCell>
        <mxCell id="-tokIjTfclb8eiRB36Tb-44" value="[else]" style="text;html=1;align=center;verticalAlign=middle;resizable=0;points=[];autosize=1;strokeColor=none;fillColor=none;" parent="1" vertex="1">
          <mxGeometry x="567" y="664" width="50" height="30" as="geometry" />
        </mxCell>
        <mxCell id="-tokIjTfclb8eiRB36Tb-45" value="" style="html=1;verticalAlign=bottom;labelBackgroundColor=none;endArrow=block;endFill=1;dashed=1;rounded=0;" parent="1" edge="1">
          <mxGeometry width="160" relative="1" as="geometry">
            <mxPoint x="562" y="454" as="sourcePoint" />
            <mxPoint x="290" y="454" as="targetPoint" />
          </mxGeometry>
        </mxCell>
        <mxCell id="-tokIjTfclb8eiRB36Tb-46" value="isListAllSpendings:boolean" style="edgeLabel;html=1;align=center;verticalAlign=middle;resizable=0;points=[];" parent="-tokIjTfclb8eiRB36Tb-45" vertex="1" connectable="0">
          <mxGeometry x="0.1078" y="-3" relative="1" as="geometry">
            <mxPoint x="-34" y="-7" as="offset" />
          </mxGeometry>
        </mxCell>
        <mxCell id="-tokIjTfclb8eiRB36Tb-47" value="" style="html=1;verticalAlign=bottom;labelBackgroundColor=none;endArrow=block;endFill=1;dashed=1;rounded=0;" parent="1" edge="1">
          <mxGeometry width="160" relative="1" as="geometry">
            <mxPoint x="562" y="554.58" as="sourcePoint" />
            <mxPoint x="290" y="554.58" as="targetPoint" />
          </mxGeometry>
        </mxCell>
        <mxCell id="-tokIjTfclb8eiRB36Tb-48" value="isListAllSpendings:boolean" style="edgeLabel;html=1;align=center;verticalAlign=middle;resizable=0;points=[];" parent="-tokIjTfclb8eiRB36Tb-47" vertex="1" connectable="0">
          <mxGeometry x="0.1078" y="-3" relative="1" as="geometry">
            <mxPoint x="-34" y="-7" as="offset" />
          </mxGeometry>
        </mxCell>
        <mxCell id="-tokIjTfclb8eiRB36Tb-49" value="" style="html=1;verticalAlign=bottom;labelBackgroundColor=none;endArrow=block;endFill=1;dashed=1;rounded=0;" parent="1" edge="1">
          <mxGeometry width="160" relative="1" as="geometry">
            <mxPoint x="562" y="661.1700000000001" as="sourcePoint" />
            <mxPoint x="290" y="661.1700000000001" as="targetPoint" />
          </mxGeometry>
        </mxCell>
        <mxCell id="-tokIjTfclb8eiRB36Tb-50" value="isListAllSpendings:boolean" style="edgeLabel;html=1;align=center;verticalAlign=middle;resizable=0;points=[];" parent="-tokIjTfclb8eiRB36Tb-49" vertex="1" connectable="0">
          <mxGeometry x="0.1078" y="-3" relative="1" as="geometry">
            <mxPoint x="-34" y="-7" as="offset" />
          </mxGeometry>
        </mxCell>
        <mxCell id="-tokIjTfclb8eiRB36Tb-51" value="" style="html=1;verticalAlign=bottom;labelBackgroundColor=none;endArrow=block;endFill=1;dashed=1;rounded=0;" parent="1" edge="1">
          <mxGeometry width="160" relative="1" as="geometry">
            <mxPoint x="562" y="730.0000000000001" as="sourcePoint" />
            <mxPoint x="290" y="730.0000000000001" as="targetPoint" />
          </mxGeometry>
        </mxCell>
        <mxCell id="-tokIjTfclb8eiRB36Tb-52" value="isListAllSpendings:boolean" style="edgeLabel;html=1;align=center;verticalAlign=middle;resizable=0;points=[];" parent="-tokIjTfclb8eiRB36Tb-51" vertex="1" connectable="0">
          <mxGeometry x="0.1078" y="-3" relative="1" as="geometry">
            <mxPoint x="-34" y="-7" as="offset" />
          </mxGeometry>
        </mxCell>
        <mxCell id="-tokIjTfclb8eiRB36Tb-55" value="false value is returned" style="shape=note2;boundedLbl=1;whiteSpace=wrap;html=1;size=25;verticalAlign=top;align=center;flipV=1;" parent="1" vertex="1">
          <mxGeometry x="-40" y="500" width="140" height="80" as="geometry" />
        </mxCell>
        <mxCell id="-tokIjTfclb8eiRB36Tb-56" value="" style="endArrow=none;startArrow=none;endFill=0;startFill=0;endSize=8;html=1;verticalAlign=bottom;dashed=1;labelBackgroundColor=none;rounded=0;exitX=0;exitY=0;exitDx=140;exitDy=52.5;exitPerimeter=0;" parent="1" source="-tokIjTfclb8eiRB36Tb-55" edge="1">
          <mxGeometry width="160" relative="1" as="geometry">
            <mxPoint x="110" y="530" as="sourcePoint" />
            <mxPoint x="310" y="438" as="targetPoint" />
          </mxGeometry>
        </mxCell>
        <mxCell id="-tokIjTfclb8eiRB36Tb-57" value="" style="endArrow=none;startArrow=none;endFill=0;startFill=0;endSize=8;html=1;verticalAlign=bottom;dashed=1;labelBackgroundColor=none;rounded=0;exitX=0;exitY=0;exitDx=140;exitDy=52.5;exitPerimeter=0;" parent="1" source="-tokIjTfclb8eiRB36Tb-55" edge="1">
          <mxGeometry width="160" relative="1" as="geometry">
            <mxPoint x="210" y="423" as="sourcePoint" />
            <mxPoint x="309" y="535" as="targetPoint" />
          </mxGeometry>
        </mxCell>
        <mxCell id="-tokIjTfclb8eiRB36Tb-58" value="" style="endArrow=none;startArrow=none;endFill=0;startFill=0;endSize=8;html=1;verticalAlign=bottom;dashed=1;labelBackgroundColor=none;rounded=0;exitX=0;exitY=0;exitDx=140;exitDy=52.5;exitPerimeter=0;" parent="1" source="-tokIjTfclb8eiRB36Tb-55" edge="1">
          <mxGeometry width="160" relative="1" as="geometry">
            <mxPoint x="270" y="507" as="sourcePoint" />
            <mxPoint x="310" y="642" as="targetPoint" />
          </mxGeometry>
        </mxCell>
        <mxCell id="-tokIjTfclb8eiRB36Tb-59" value="true value is returned" style="shape=note2;boundedLbl=1;whiteSpace=wrap;html=1;size=25;verticalAlign=top;align=center;flipV=1;" parent="1" vertex="1">
          <mxGeometry x="-30" y="820" width="140" height="80" as="geometry" />
        </mxCell>
        <mxCell id="-tokIjTfclb8eiRB36Tb-60" value="" style="endArrow=none;startArrow=none;endFill=0;startFill=0;endSize=8;html=1;verticalAlign=bottom;dashed=1;labelBackgroundColor=none;rounded=0;exitX=1;exitY=1;exitDx=0;exitDy=0;exitPerimeter=0;" parent="1" source="-tokIjTfclb8eiRB36Tb-59" edge="1">
          <mxGeometry width="160" relative="1" as="geometry">
            <mxPoint x="140" y="800" as="sourcePoint" />
            <mxPoint x="320" y="730" as="targetPoint" />
          </mxGeometry>
        </mxCell>
        <mxCell id="-tokIjTfclb8eiRB36Tb-61" value="opt" style="shape=umlFrame;whiteSpace=wrap;html=1;pointerEvents=0;recursiveResize=0;container=1;collapsible=0;width=30;height=30;" parent="1" vertex="1">
          <mxGeometry x="236" y="810" width="584" height="140" as="geometry" />
        </mxCell>
        <mxCell id="-tokIjTfclb8eiRB36Tb-64" value="printStatisticsIfRequired(...)" style="html=1;verticalAlign=bottom;endArrow=block;curved=0;rounded=0;" parent="-tokIjTfclb8eiRB36Tb-61" target="-tokIjTfclb8eiRB36Tb-63" edge="1">
          <mxGeometry x="-0.3382" width="80" relative="1" as="geometry">
            <mxPoint x="54" y="40" as="sourcePoint" />
            <mxPoint x="134" y="40" as="targetPoint" />
            <mxPoint as="offset" />
          </mxGeometry>
        </mxCell>
        <mxCell id="-tokIjTfclb8eiRB36Tb-63" value="" style="html=1;points=[[0,0,0,0,5],[0,1,0,0,-5],[1,0,0,0,5],[1,1,0,0,-5]];perimeter=orthogonalPerimeter;outlineConnect=0;targetShapes=umlLifeline;portConstraint=eastwest;newEdgeStyle={&quot;curved&quot;:0,&quot;rounded&quot;:0};" parent="-tokIjTfclb8eiRB36Tb-61" vertex="1">
          <mxGeometry x="326" y="40" width="10" height="70" as="geometry" />
        </mxCell>
        <mxCell id="-tokIjTfclb8eiRB36Tb-62" value="[user chooses to list all spendings]" style="text;html=1;align=center;verticalAlign=middle;resizable=0;points=[];autosize=1;strokeColor=none;fillColor=none;" parent="1" vertex="1">
          <mxGeometry x="286" y="808" width="210" height="30" as="geometry" />
        </mxCell>
        <mxCell id="-tokIjTfclb8eiRB36Tb-65" value="" style="html=1;verticalAlign=bottom;labelBackgroundColor=none;endArrow=block;endFill=1;dashed=1;rounded=0;" parent="1" edge="1">
          <mxGeometry width="160" relative="1" as="geometry">
            <mxPoint x="562" y="920" as="sourcePoint" />
            <mxPoint x="290" y="920" as="targetPoint" />
          </mxGeometry>
        </mxCell>
        <mxCell id="6MTPRzdVfldAcxiSzNyp-1" value="return" style="edgeLabel;html=1;align=center;verticalAlign=middle;resizable=0;points=[];fontSize=12;" parent="-tokIjTfclb8eiRB36Tb-65" vertex="1" connectable="0">
          <mxGeometry x="0.2353" y="-1" relative="1" as="geometry">
            <mxPoint x="-74" y="-9" as="offset" />
          </mxGeometry>
        </mxCell>
        <mxCell id="-tokIjTfclb8eiRB36Tb-66" value="" style="html=1;verticalAlign=bottom;labelBackgroundColor=none;endArrow=block;endFill=1;dashed=1;rounded=0;" parent="1" source="-tokIjTfclb8eiRB36Tb-9" edge="1">
          <mxGeometry width="160" relative="1" as="geometry">
            <mxPoint x="260" y="1000" as="sourcePoint" />
            <mxPoint x="120" y="1000" as="targetPoint" />
          </mxGeometry>
        </mxCell>
        <mxCell id="6MTPRzdVfldAcxiSzNyp-3" value="return" style="edgeLabel;html=1;align=center;verticalAlign=middle;resizable=0;points=[];fontSize=12;" parent="-tokIjTfclb8eiRB36Tb-66" vertex="1" connectable="0">
          <mxGeometry x="0.329" y="-2" relative="1" as="geometry">
            <mxPoint x="-22" y="-8" as="offset" />
          </mxGeometry>
        </mxCell>
        <mxCell id="-tokIjTfclb8eiRB36Tb-67" value="&lt;b&gt;sd&lt;/b&gt;&amp;nbsp;execute list command" style="shape=umlFrame;whiteSpace=wrap;html=1;pointerEvents=0;width=170;height=40;" parent="1" vertex="1">
          <mxGeometry x="-100" y="110" width="1050" height="930" as="geometry" />
        </mxCell>
      </root>
    </mxGraphModel>
  </diagram>
</mxfile>
